<svg height="1000" width="1000" xmlns="http://www.w3.org/2000/svg">
    <ellipse cx="250" cy="470" rx="60" ry="90" transform="rotate(345, 250, 470)" style="fill:black;" />
    <ellipse cx="350" cy="320" rx="65" ry="100" transform="rotate(350, 350, 320)" style="fill:black;" />
    <ellipse cx="500" cy="270" rx="65" ry="100" style="fill:black;" />
    <ellipse cx="650" cy="320" rx="65" ry="100" transform="rotate(10, 650, 320)" style="fill:black;" />
    <ellipse cx="750" cy="470" rx="60" ry="90" transform="rotate(15, 750, 470)" style="fill:black;" />


    <path 
        d="
        M 320 550 
        C 130 620, 220 730, 310 700 
        Q 500 620 690 700
        C 780 730, 870 620, 680 550 
        C 660 540, 635 520, 630 500
        C 610 350, 390 350, 370 500
        C 365 520, 340 540, 320 550
        Z
        " 
        fill="black" 
        stroke="none" 
    />

    <path 
        d="
        M 205 370
        Q 210 300 260 260
        Q 250 310 255 370
        Q 230 355 205 370
        Z
        " 
        fill="black" 
        stroke="none" 
    />

    <path 
        d="
        M 315 220
        Q 320 150 370 110
        Q 360 160 365 220
        Q 340 205 315 220
        Z
        " 
        fill="black" 
        stroke="none" 
    />


    <path 
        d="
        M 475 170
        Q 480 100 500 60
        Q 520 110 525 170
        Q 500 155 475 170
        Z
        " 
        fill="black" 
        stroke="none" 
    />


    <path 
        d="
        M 685 220
        Q 680 150 630 110
        Q 640 160 635 220
        Q 660 205 685 220
        Z
        " 
        fill="black" 
        stroke="none" 
    />
    

    <path 
        d="
        M 795 370
        Q 790 300 740 260
        Q 750 310 745 370
        Q 770 355 795 370
        Z
        " 
        fill="black" 
        stroke="none" 
    />

</svg>