<svg height="800" width="800" xmlns="http://www.w3.org/2000/svg">
        <ellipse cx="150" cy="470" rx="60" ry="90" transform="rotate(345, 150, 470)" style="fill:black;" />
        <ellipse cx="250" cy="320" rx="65" ry="100" transform="rotate(350, 250, 320)" style="fill:black;" />
        <ellipse cx="400" cy="270" rx="65" ry="100" style="fill:black;" />
        <ellipse cx="550" cy="320" rx="65" ry="100" transform="rotate(10, 550, 320)" style="fill:black;" />
        <ellipse cx="650" cy="470" rx="60" ry="90" transform="rotate(15, 650, 470)" style="fill:black;" />

        <path 
            d="
            M 220 550 
            c -190 70, -100 180, -10 150 
            q 190 -80 380 0
            c 90 30, 180 -80, -10 -150 
            c -20 -10, -45 -30, -50 -50
            c -20 -150, -240 -150, -260 0
            c -5 20, -30 40, -50 50
            Z
            " 
            fill="black" 
            stroke="none" 
        />

        <path 
            d="
            M 105 370
            q 5 -70 55 -110
            q -10 50 -5 110
            q -25 -15 -50 0
            Z
            " 
            fill="black" 
            stroke="none" 
        />

        <path 
            d="
            M 215 220
            q 5 -70 55 -110
            q -10 50 -5 110
            q -25 -15 -50 0
            Z
            " 
            fill="black" 
            stroke="none" 
        />

        <path 
            d="
            M 375 170
            q 5 -70 25 -110
            q 20 50 25 110
            q -25 -15 -50 0
            Z
            " 
            fill="black" 
            stroke="none" 
        />

        <path 
            d="
            M 585 220
            q -5 -70 -55 -110
            q 10 50 5 110
            q 25 -15 50 0
            Z
            " 
            fill="black" 
            stroke="none" 
        />

        <path 
            d="
            M 695 370
            q -5 -70 -55 -110
            q 10 50 5 110
            q 25 -15 50 0
            Z
            " 
            fill="black" 
            stroke="none" 
        />

    </svg>
